<?xml version="1.0" encoding="UTF-8"?>
<svg xmlns="http://www.w3.org/2000/svg" xmlns:xlink="http://www.w3.org/1999/xlink" viewBox="0 0 16 16" width="16px" height="16px">
<g id="surface2880185">
<path style=" stroke:none;fill-rule:nonzero;fill:rgb(36.078432%,65.490198%,12.54902%);fill-opacity:1;" d="M 10.5 1 C 8.019531 1 6 3.019531 6 5.5 C 6 6.558594 6.382812 7.523438 7 8.292969 L 2.023438 13.269531 L 2.726562 13.980469 L 7.707031 9 C 8.476562 9.617188 9.441406 10 10.5 10 C 12.980469 10 15 7.980469 15 5.5 C 15 3.019531 12.980469 1 10.5 1 Z M 10.5 2 C 12.4375 2 14 3.5625 14 5.5 C 14 7.4375 12.4375 9 10.5 9 C 8.5625 9 7 7.4375 7 5.5 C 7 3.5625 8.5625 2 10.5 2 Z M 10.5 2 "/>
</g>
</svg>
