<svg width="90" height="27" viewBox="0 0 90 27" fill="none" xmlns="http://www.w3.org/2000/svg">
<path d="M4.58317 20.2583C2.96428 20.2583 1.51761 19.9139 0.243171 19.225L0.527337 16.745C1.02678 17.1067 1.61234 17.4167 2.284 17.675C2.95567 17.9161 3.68761 18.0367 4.47984 18.0367C5.22039 18.0367 5.78873 17.9161 6.18484 17.675C6.58095 17.4339 6.779 17.0722 6.779 16.59C6.779 16.0561 6.56373 15.6514 6.13317 15.3758C5.71984 15.0831 5.10845 14.8075 4.299 14.5492C3.47234 14.2736 2.79206 14.0067 2.25817 13.7483C1.72428 13.4728 1.28511 13.0939 0.94067 12.6117C0.596226 12.1294 0.424004 11.5094 0.424004 10.7517C0.424004 9.66667 0.828726 8.77111 1.63817 8.065C2.46484 7.34167 3.65317 6.98 5.20317 6.98C6.5465 6.98 7.76928 7.28139 8.8715 7.88417L8.58734 10.2608C8.05345 9.86472 7.51956 9.56333 6.98567 9.35667C6.469 9.13278 5.89206 9.02083 5.25484 9.02083C4.58317 9.02083 4.05789 9.15 3.679 9.40833C3.30011 9.66667 3.11067 10.0456 3.11067 10.545C3.11067 10.9067 3.20539 11.1994 3.39484 11.4233C3.58428 11.6472 3.85984 11.8367 4.2215 11.9917C4.58317 12.1467 5.1515 12.3619 5.9265 12.6375C7.02873 13.0164 7.89845 13.4814 8.53567 14.0325C9.19011 14.5836 9.51734 15.3931 9.51734 16.4608C9.51734 17.5631 9.11261 18.4758 8.30317 19.1992C7.51095 19.9053 6.27095 20.2583 4.58317 20.2583ZM22.5107 7.23833V20H20.0565L19.9015 18.8892C19.0749 19.8019 17.9899 20.2583 16.6465 20.2583C14.9588 20.2583 13.7015 19.7589 12.8749 18.76C12.0482 17.7611 11.6349 16.3144 11.6349 14.42V7.23833H14.3215V14.0583C14.3215 15.3672 14.5368 16.3403 14.9674 16.9775C15.4151 17.6147 16.1299 17.9333 17.1115 17.9333C17.6799 17.9333 18.1965 17.83 18.6615 17.6233C19.1265 17.3994 19.514 17.0808 19.824 16.6675V7.23833H22.5107ZM28.4816 20.2583C27.3622 20.2583 26.4408 19.9139 25.7175 19.225C25.0113 18.5361 24.6583 17.6319 24.6583 16.5125C24.6583 15.3931 25.0458 14.4975 25.8208 13.8258C26.613 13.1542 27.5688 12.6806 28.6883 12.405C29.8077 12.1122 30.9444 11.9572 32.0983 11.94C32.0811 10.9583 31.8658 10.2867 31.4525 9.925C31.0563 9.54611 30.4105 9.35667 29.515 9.35667C28.9638 9.35667 28.4127 9.44278 27.8616 9.615C27.3277 9.77 26.7336 10.0456 26.0791 10.4417L25.7691 8.24583C26.4063 7.84972 27.1038 7.54833 27.8616 7.34167C28.6366 7.11778 29.4288 7.00583 30.2383 7.00583C31.8227 7.00583 32.9766 7.43639 33.7 8.2975C34.4233 9.15861 34.785 10.6225 34.785 12.6892V15.66C34.785 16.3317 34.8108 16.8311 34.8625 17.1583C34.9313 17.4856 35.0519 17.7181 35.2241 17.8558C35.4136 17.9936 35.7063 18.0625 36.1025 18.0625H36.4125L36.1025 20.2583H35.5083C34.6127 20.2583 33.9325 20.1206 33.4675 19.845C33.0197 19.5694 32.658 19.1389 32.3825 18.5533C31.9175 19.0872 31.3491 19.5092 30.6775 19.8192C30.0058 20.1119 29.2738 20.2583 28.4816 20.2583ZM29.3083 18.14C29.8077 18.14 30.3072 18.0194 30.8066 17.7783C31.3233 17.5372 31.7538 17.2014 32.0983 16.7708V13.7742C28.9983 13.8775 27.4483 14.7472 27.4483 16.3833C27.4483 17.5544 28.0683 18.14 29.3083 18.14ZM47.3113 20.2583C46.1918 20.2583 45.3566 19.9569 44.8055 19.3542C44.2716 18.7514 44.0046 17.985 44.0046 17.055V0.625001H46.7171V15.7375C46.7171 16.4608 46.7602 16.9861 46.8463 17.3133C46.9324 17.6233 47.096 17.83 47.3371 17.9333C47.5782 18.0194 47.983 18.0625 48.5513 18.0625L48.2155 20.2583H47.3113ZM55.9445 20.2583C54.6184 20.2583 53.4645 19.9656 52.4828 19.38C51.5184 18.7772 50.7778 17.9764 50.2611 16.9775C49.7617 15.9614 49.512 14.8419 49.512 13.6192C49.512 12.3964 49.7617 11.2856 50.2611 10.2867C50.7778 9.27056 51.5184 8.46972 52.4828 7.88417C53.4645 7.28139 54.6184 6.98 55.9445 6.98C57.2534 6.98 58.39 7.28139 59.3545 7.88417C60.3361 8.46972 61.0853 9.27056 61.602 10.2867C62.1186 11.2856 62.377 12.3964 62.377 13.6192C62.377 14.8419 62.1186 15.9614 61.602 16.9775C61.0853 17.9764 60.3361 18.7772 59.3545 19.38C58.39 19.9656 57.2534 20.2583 55.9445 20.2583ZM55.9445 17.9592C57.1156 17.9592 58.0197 17.5717 58.657 16.7967C59.2942 16.0217 59.6128 14.9625 59.6128 13.6192C59.6128 12.2758 59.2942 11.2167 58.657 10.4417C58.0197 9.66667 57.1156 9.27917 55.9445 9.27917C54.7734 9.27917 53.8692 9.66667 53.232 10.4417C52.5948 11.2167 52.2761 12.2758 52.2761 13.6192C52.2761 14.9625 52.5948 16.0217 53.232 16.7967C53.8692 17.5717 54.7734 17.9592 55.9445 17.9592ZM69.8071 26.4842C67.9987 26.4842 66.5435 26.1483 65.4412 25.4767C64.339 24.8222 63.7879 23.9094 63.7879 22.7383C63.7879 21.4639 64.5026 20.465 65.9321 19.7417C65.1399 19.3111 64.7437 18.7428 64.7437 18.0367C64.7437 17.2272 65.2174 16.6158 66.1646 16.2025C65.4757 15.7719 64.9504 15.195 64.5887 14.4717C64.2271 13.7311 64.0462 12.9044 64.0462 11.9917C64.0462 11.0617 64.2529 10.2178 64.6662 9.46C65.0796 8.70222 65.6824 8.09945 66.4746 7.65167C67.2668 7.20389 68.2054 6.98 69.2904 6.98C70.4271 6.98 71.4346 7.28139 72.3129 7.88417C73.1396 7.43639 74.1385 7.2125 75.3096 7.2125H75.7746L75.5162 8.94333H74.6896C74.2762 8.94333 73.8974 8.98639 73.5529 9.0725C74.1901 9.89917 74.5087 10.8722 74.5087 11.9917C74.5087 12.9389 74.3021 13.8 73.8887 14.575C73.4754 15.35 72.8726 15.9614 72.0804 16.4092C71.2882 16.8569 70.3582 17.0808 69.2904 17.0808C68.7565 17.0808 68.2312 17.0119 67.7146 16.8742C67.4046 16.9775 67.2496 17.1669 67.2496 17.4425C67.2496 17.6492 67.3701 17.8214 67.6112 17.9592C67.8696 18.0969 68.2743 18.2003 68.8254 18.2692L71.7187 18.7083C73.131 18.915 74.2074 19.3197 74.9479 19.9225C75.6885 20.5253 76.0587 21.3519 76.0587 22.4025C76.0587 23.6942 75.499 24.6931 74.3796 25.3992C73.2774 26.1225 71.7532 26.4842 69.8071 26.4842ZM69.2904 15.0142C70.1515 15.0142 70.8146 14.7472 71.2796 14.2133C71.7618 13.6622 72.0029 12.9303 72.0029 12.0175C72.0029 11.1219 71.7618 10.4072 71.2796 9.87333C70.8146 9.32222 70.1515 9.04667 69.2904 9.04667C68.4121 9.04667 67.7318 9.32222 67.2496 9.87333C66.7846 10.4072 66.5521 11.1219 66.5521 12.0175C66.5521 12.9303 66.7846 13.6622 67.2496 14.2133C67.7318 14.7472 68.4121 15.0142 69.2904 15.0142ZM69.9621 24.2625C72.3215 24.2625 73.5012 23.6856 73.5012 22.5317C73.5012 22.0667 73.3118 21.705 72.9329 21.4467C72.554 21.2056 71.9512 21.0075 71.1246 20.8525L67.8437 20.3358C66.7415 20.8008 66.1904 21.4467 66.1904 22.2733C66.1904 22.945 66.5176 23.4444 67.1721 23.7717C67.8437 24.0989 68.7737 24.2625 69.9621 24.2625ZM83.1906 20.2583C81.8645 20.2583 80.7106 19.9656 79.7289 19.38C78.7645 18.7772 78.0239 17.9764 77.5072 16.9775C77.0078 15.9614 76.7581 14.8419 76.7581 13.6192C76.7581 12.3964 77.0078 11.2856 77.5072 10.2867C78.0239 9.27056 78.7645 8.46972 79.7289 7.88417C80.7106 7.28139 81.8645 6.98 83.1906 6.98C84.4995 6.98 85.6361 7.28139 86.6006 7.88417C87.5822 8.46972 88.3314 9.27056 88.8481 10.2867C89.3647 11.2856 89.6231 12.3964 89.6231 13.6192C89.6231 14.8419 89.3647 15.9614 88.8481 16.9775C88.3314 17.9764 87.5822 18.7772 86.6006 19.38C85.6361 19.9656 84.4995 20.2583 83.1906 20.2583ZM83.1906 17.9592C84.3617 17.9592 85.2658 17.5717 85.9031 16.7967C86.5403 16.0217 86.8589 14.9625 86.8589 13.6192C86.8589 12.2758 86.5403 11.2167 85.9031 10.4417C85.2658 9.66667 84.3617 9.27917 83.1906 9.27917C82.0195 9.27917 81.1153 9.66667 80.4781 10.4417C79.8408 11.2167 79.5222 12.2758 79.5222 13.6192C79.5222 14.9625 79.8408 16.0217 80.4781 16.7967C81.1153 17.5717 82.0195 17.9592 83.1906 17.9592Z" fill="#161616"/>
</svg>
